<svg width="24" height="24" viewBox="0 0 24 24" fill="none" xmlns="http://www.w3.org/2000/svg">
<g clip-path="url(#clip0_304_23691)">
<path d="M20.6519 14.43L19.0419 13.5C19.1519 13.02 19.2019 12.51 19.2019 12C19.2019 11.49 19.1519 10.98 19.0419 10.5L20.6519 9.57C20.8919 9.44 20.9719 9.13 20.8419 8.89L19.0919 5.86C18.9519 5.62 18.6419 5.54 18.4019 5.68L16.7819 6.62C16.0419 5.94 15.1719 5.42 14.2019 5.12V3.25C14.2019 2.97 13.9819 2.75 13.7019 2.75H10.2019C9.92193 2.75 9.70193 2.97 9.70193 3.25V5.12C8.73193 5.42 7.86193 5.94 7.12193 6.62L5.50193 5.68C5.26193 5.54 4.95193 5.62 4.81193 5.86L3.06193 8.89C2.93193 9.13 3.01193 9.44 3.25193 9.57L4.86193 10.5C4.75193 10.98 4.70193 11.49 4.70193 12C4.70193 12.51 4.75193 13.02 4.86193 13.5L3.25193 14.43C3.01193 14.56 2.93193 14.87 3.06193 15.11L4.81193 18.14C4.95193 18.38 5.26193 18.46 5.50193 18.32L7.12193 17.38C7.86193 18.06 8.73193 18.58 9.70193 18.88V20.75C9.70193 21.03 9.92193 21.25 10.2019 21.25H13.7019C13.9819 21.25 14.2019 21.03 14.2019 20.75V18.88C15.1719 18.58 16.0419 18.06 16.7819 17.38L18.4019 18.32C18.6419 18.46 18.9519 18.38 19.0919 18.14L20.8419 15.11C20.9719 14.87 20.8919 14.56 20.6519 14.43ZM15.0919 12.84C15.0119 13.11 14.9119 13.38 14.7619 13.62C14.4819 14.12 14.0719 14.53 13.5719 14.81C13.3319 14.96 13.0619 15.06 12.7919 15.14C12.5219 15.21 12.2419 15.25 11.9519 15.25C11.6619 15.25 11.3819 15.21 11.1119 15.14C10.8419 15.06 10.5719 14.96 10.3319 14.81C9.83193 14.53 9.42193 14.12 9.14193 13.62C8.99193 13.38 8.89193 13.11 8.81193 12.84C8.74193 12.57 8.70193 12.29 8.70193 12C8.70193 11.71 8.74193 11.43 8.81193 11.16C8.89193 10.89 8.99193 10.62 9.14193 10.38C9.42193 9.88 9.83193 9.47 10.3319 9.19C10.5719 9.04 10.8419 8.94 11.1119 8.86C11.3819 8.79 11.6619 8.75 11.9519 8.75C12.2419 8.75 12.5219 8.79 12.7919 8.86C13.0619 8.94 13.3319 9.04 13.5719 9.19C14.0719 9.47 14.4819 9.88 14.7619 10.38C14.9119 10.62 15.0119 10.89 15.0919 11.16C15.1619 11.43 15.2019 11.71 15.2019 12C15.2019 12.29 15.1619 12.57 15.0919 12.84Z" stroke="#121331" stroke-width="1.5" stroke-linecap="round" stroke-linejoin="round"/>
</g>
<defs>
<clipPath id="clip0_304_23691">
<rect width="24" height="24" fill="white"/>
</clipPath>
</defs>
</svg>
