<svg width="123" height="96" xmlns="http://www.w3.org/2000/svg" xmlns:xlink="http://www.w3.org/1999/xlink" xml:space="preserve" overflow="hidden"><g transform="translate(-1109 -341)"><path d="M27 66C27 69.866 23.866 73 20 73 16.134 73 13 69.866 13 66 13 62.134 16.134 59 20 59 23.866 59 27 62.134 27 66Z" transform="matrix(1.28125 0 0 1 1109 341)"/><path d="M85 66C85 69.866 81.866 73 78 73 74.134 73 71 69.866 71 66 71 62.134 74.134 59 78 59 81.866 59 85 62.134 85 66Z" transform="matrix(1.28125 0 0 1 1109 341)"/><path d="M4 24 60 24 60 48 4 48Z" transform="matrix(1.28125 0 0 1 1109 341)"/><path d="M68 34 74 34C75.8 34 77.4 35.2 77.8 36.9L79.8 43.8C79.8 43.9 79.9 43.9 79.9 44L68 44 68 34ZM74 30 64 30 64 44 64 50 64 66 68 66C68 60.5 72.5 56 78 56 83.5 56 88 60.5 88 66 90.2 66 92 64.2 92 62L92 52C92 50.7 91.4 49.6 90.4 48.8L85.1 44.8C84.4 44.3 83.9 43.5 83.7 42.7L81.7 35.8C80.7 32.4 77.5 30 74 30Z" transform="matrix(1.28125 0 0 1 1109 341)"/><path d="M60 66 30 66C30 60.5 25.5 56 20 56 14.5 56 10 60.5 10 66L4 66 4 52 60 52 60 66Z" transform="matrix(1.28125 0 0 1 1109 341)"/></g></svg>